<mxfile host="app.diagrams.net" modified="2021-08-04T10:04:02.244Z" agent="5.0 (Windows)" etag="hR1xk2LSdXXKhWognFhE" version="14.9.3" type="github">
  <diagram id="FhkFVt4sXrzeg-nRiGku" name="Page-1">
    <mxGraphModel dx="1038" dy="508" grid="1" gridSize="10" guides="1" tooltips="1" connect="1" arrows="1" fold="1" page="1" pageScale="1" pageWidth="1169" pageHeight="827" math="0" shadow="0">
      <root>
        <mxCell id="0" />
        <mxCell id="1" parent="0" />
        <mxCell id="TeyzFELnXTnuhCw4mWm0-1" value="Separation - Retirement or Expiration of contract" style="swimlane;fontStyle=0" vertex="1" parent="1">
          <mxGeometry x="10" y="10" width="660" height="730" as="geometry" />
        </mxCell>
        <mxCell id="TeyzFELnXTnuhCw4mWm0-2" value="Start" style="rounded=1;whiteSpace=wrap;html=1;" vertex="1" parent="TeyzFELnXTnuhCw4mWm0-1">
          <mxGeometry x="85" y="40" width="100" height="60" as="geometry" />
        </mxCell>
        <mxCell id="TeyzFELnXTnuhCw4mWm0-3" value="" style="edgeStyle=orthogonalEdgeStyle;rounded=0;orthogonalLoop=1;jettySize=auto;html=1;" edge="1" parent="TeyzFELnXTnuhCw4mWm0-1" source="TeyzFELnXTnuhCw4mWm0-4" target="TeyzFELnXTnuhCw4mWm0-7">
          <mxGeometry relative="1" as="geometry" />
        </mxCell>
        <mxCell id="TeyzFELnXTnuhCw4mWm0-4" value="&lt;span lang=&quot;EN-GB&quot;&gt;Upon remaining of 1 year in service anotification is generated to the staff.&lt;span&gt;HR issues notification of retirement a year beforeattaining the retirement age&lt;/span&gt;&lt;/span&gt;" style="rounded=0;whiteSpace=wrap;html=1;" vertex="1" parent="TeyzFELnXTnuhCw4mWm0-1">
          <mxGeometry x="30" y="140" width="210" height="100" as="geometry" />
        </mxCell>
        <mxCell id="TeyzFELnXTnuhCw4mWm0-5" value="" style="edgeStyle=orthogonalEdgeStyle;rounded=0;orthogonalLoop=1;jettySize=auto;html=1;" edge="1" parent="TeyzFELnXTnuhCw4mWm0-1" source="TeyzFELnXTnuhCw4mWm0-2" target="TeyzFELnXTnuhCw4mWm0-4">
          <mxGeometry relative="1" as="geometry">
            <mxPoint x="135" y="180" as="targetPoint" />
          </mxGeometry>
        </mxCell>
        <mxCell id="TeyzFELnXTnuhCw4mWm0-6" value="" style="edgeStyle=orthogonalEdgeStyle;rounded=0;orthogonalLoop=1;jettySize=auto;html=1;" edge="1" parent="TeyzFELnXTnuhCw4mWm0-1" source="TeyzFELnXTnuhCw4mWm0-7" target="TeyzFELnXTnuhCw4mWm0-9">
          <mxGeometry relative="1" as="geometry" />
        </mxCell>
        <mxCell id="TeyzFELnXTnuhCw4mWm0-7" value="&lt;span lang=&quot;EN-GB&quot;&gt;HRM notifies the respective HOD&lt;/span&gt;" style="rounded=0;whiteSpace=wrap;html=1;" vertex="1" parent="TeyzFELnXTnuhCw4mWm0-1">
          <mxGeometry x="65" y="310" width="140" height="70" as="geometry" />
        </mxCell>
        <mxCell id="TeyzFELnXTnuhCw4mWm0-8" value="" style="edgeStyle=orthogonalEdgeStyle;rounded=0;orthogonalLoop=1;jettySize=auto;html=1;" edge="1" parent="TeyzFELnXTnuhCw4mWm0-1" source="TeyzFELnXTnuhCw4mWm0-9" target="TeyzFELnXTnuhCw4mWm0-11">
          <mxGeometry relative="1" as="geometry" />
        </mxCell>
        <mxCell id="TeyzFELnXTnuhCw4mWm0-9" value="&lt;span lang=&quot;EN-GB&quot;&gt;HRM acknowledges the resignation and prompts employee to start clearance process&lt;br&gt;&lt;/span&gt;" style="rounded=0;whiteSpace=wrap;html=1;" vertex="1" parent="TeyzFELnXTnuhCw4mWm0-1">
          <mxGeometry x="55" y="460" width="160" height="80" as="geometry" />
        </mxCell>
        <mxCell id="TeyzFELnXTnuhCw4mWm0-10" value="" style="edgeStyle=orthogonalEdgeStyle;rounded=0;orthogonalLoop=1;jettySize=auto;html=1;" edge="1" parent="TeyzFELnXTnuhCw4mWm0-1" source="TeyzFELnXTnuhCw4mWm0-11" target="TeyzFELnXTnuhCw4mWm0-13">
          <mxGeometry relative="1" as="geometry" />
        </mxCell>
        <mxCell id="TeyzFELnXTnuhCw4mWm0-11" value="&lt;span lang=&quot;EN-GB&quot;&gt;Follow up with all relevant departments for clearance and create handover notes&lt;/span&gt;" style="rounded=0;whiteSpace=wrap;html=1;" vertex="1" parent="TeyzFELnXTnuhCw4mWm0-1">
          <mxGeometry x="55" y="620" width="160" height="80" as="geometry" />
        </mxCell>
        <mxCell id="TeyzFELnXTnuhCw4mWm0-12" value="" style="edgeStyle=orthogonalEdgeStyle;rounded=0;orthogonalLoop=1;jettySize=auto;html=1;" edge="1" parent="TeyzFELnXTnuhCw4mWm0-1" source="TeyzFELnXTnuhCw4mWm0-13" target="TeyzFELnXTnuhCw4mWm0-16">
          <mxGeometry relative="1" as="geometry" />
        </mxCell>
        <mxCell id="TeyzFELnXTnuhCw4mWm0-13" value="&lt;span lang=&quot;EN-GB&quot;&gt;Upon clearance by all relevant departments, HRM calculates payment due to the employee and forwards to CEO for approval.&lt;/span&gt;" style="rounded=0;whiteSpace=wrap;html=1;" vertex="1" parent="TeyzFELnXTnuhCw4mWm0-1">
          <mxGeometry x="281" y="615" width="190" height="90" as="geometry" />
        </mxCell>
        <mxCell id="TeyzFELnXTnuhCw4mWm0-14" value="" style="edgeStyle=orthogonalEdgeStyle;rounded=0;orthogonalLoop=1;jettySize=auto;html=1;" edge="1" parent="TeyzFELnXTnuhCw4mWm0-1" source="TeyzFELnXTnuhCw4mWm0-16" target="TeyzFELnXTnuhCw4mWm0-18">
          <mxGeometry relative="1" as="geometry" />
        </mxCell>
        <mxCell id="TeyzFELnXTnuhCw4mWm0-15" value="" style="edgeStyle=orthogonalEdgeStyle;rounded=0;orthogonalLoop=1;jettySize=auto;html=1;" edge="1" parent="TeyzFELnXTnuhCw4mWm0-1" source="TeyzFELnXTnuhCw4mWm0-16" target="TeyzFELnXTnuhCw4mWm0-21">
          <mxGeometry relative="1" as="geometry" />
        </mxCell>
        <mxCell id="TeyzFELnXTnuhCw4mWm0-16" value="&lt;div&gt;Dues approved&lt;/div&gt;&lt;div&gt; by CEO?&lt;/div&gt;" style="rhombus;whiteSpace=wrap;html=1;rounded=0;" vertex="1" parent="TeyzFELnXTnuhCw4mWm0-1">
          <mxGeometry x="301" y="450" width="150" height="80" as="geometry" />
        </mxCell>
        <mxCell id="TeyzFELnXTnuhCw4mWm0-17" value="" style="edgeStyle=orthogonalEdgeStyle;rounded=0;orthogonalLoop=1;jettySize=auto;html=1;entryX=1;entryY=0.5;entryDx=0;entryDy=0;exitX=0.475;exitY=1;exitDx=0;exitDy=0;exitPerimeter=0;" edge="1" parent="TeyzFELnXTnuhCw4mWm0-1" source="TeyzFELnXTnuhCw4mWm0-18" target="TeyzFELnXTnuhCw4mWm0-13">
          <mxGeometry relative="1" as="geometry">
            <mxPoint x="570" y="620" as="targetPoint" />
          </mxGeometry>
        </mxCell>
        <mxCell id="TeyzFELnXTnuhCw4mWm0-18" value="Comments" style="shape=document;whiteSpace=wrap;html=1;boundedLbl=1;rounded=0;" vertex="1" parent="TeyzFELnXTnuhCw4mWm0-1">
          <mxGeometry x="510" y="450" width="120" height="80" as="geometry" />
        </mxCell>
        <mxCell id="TeyzFELnXTnuhCw4mWm0-19" value="" style="edgeStyle=orthogonalEdgeStyle;rounded=0;orthogonalLoop=1;jettySize=auto;html=1;" edge="1" parent="TeyzFELnXTnuhCw4mWm0-1" source="TeyzFELnXTnuhCw4mWm0-21" target="TeyzFELnXTnuhCw4mWm0-24">
          <mxGeometry relative="1" as="geometry" />
        </mxCell>
        <mxCell id="TeyzFELnXTnuhCw4mWm0-20" value="" style="edgeStyle=orthogonalEdgeStyle;rounded=0;orthogonalLoop=1;jettySize=auto;html=1;" edge="1" parent="TeyzFELnXTnuhCw4mWm0-1" source="TeyzFELnXTnuhCw4mWm0-21" target="TeyzFELnXTnuhCw4mWm0-26">
          <mxGeometry relative="1" as="geometry" />
        </mxCell>
        <mxCell id="TeyzFELnXTnuhCw4mWm0-21" value="Notify HR and forward to FAU for dues payment" style="whiteSpace=wrap;html=1;rounded=0;" vertex="1" parent="TeyzFELnXTnuhCw4mWm0-1">
          <mxGeometry x="316" y="300" width="120" height="60" as="geometry" />
        </mxCell>
        <mxCell id="TeyzFELnXTnuhCw4mWm0-22" value="yes" style="text;html=1;strokeColor=none;fillColor=none;align=center;verticalAlign=middle;whiteSpace=wrap;rounded=0;" vertex="1" parent="TeyzFELnXTnuhCw4mWm0-1">
          <mxGeometry x="370" y="395" width="40" height="20" as="geometry" />
        </mxCell>
        <mxCell id="TeyzFELnXTnuhCw4mWm0-23" value="" style="edgeStyle=orthogonalEdgeStyle;rounded=0;orthogonalLoop=1;jettySize=auto;html=1;entryX=0;entryY=0.5;entryDx=0;entryDy=0;" edge="1" parent="TeyzFELnXTnuhCw4mWm0-1" source="TeyzFELnXTnuhCw4mWm0-24" target="TeyzFELnXTnuhCw4mWm0-25">
          <mxGeometry relative="1" as="geometry">
            <mxPoint x="516" y="190" as="targetPoint" />
          </mxGeometry>
        </mxCell>
        <mxCell id="TeyzFELnXTnuhCw4mWm0-24" value="HR issues certificate of service" style="whiteSpace=wrap;html=1;rounded=0;" vertex="1" parent="TeyzFELnXTnuhCw4mWm0-1">
          <mxGeometry x="316" y="160" width="120" height="60" as="geometry" />
        </mxCell>
        <mxCell id="TeyzFELnXTnuhCw4mWm0-25" value="End" style="rounded=1;whiteSpace=wrap;html=1;" vertex="1" parent="TeyzFELnXTnuhCw4mWm0-1">
          <mxGeometry x="530" y="160" width="100" height="60" as="geometry" />
        </mxCell>
        <mxCell id="TeyzFELnXTnuhCw4mWm0-26" value="Dues payment request to FAU" style="shape=parallelogram;perimeter=parallelogramPerimeter;whiteSpace=wrap;html=1;fixedSize=1;rounded=0;" vertex="1" parent="TeyzFELnXTnuhCw4mWm0-1">
          <mxGeometry x="516" y="300" width="120" height="60" as="geometry" />
        </mxCell>
        <mxCell id="TeyzFELnXTnuhCw4mWm0-27" value="no" style="text;html=1;strokeColor=none;fillColor=none;align=center;verticalAlign=middle;whiteSpace=wrap;rounded=0;" vertex="1" parent="1">
          <mxGeometry x="465" y="482" width="40" height="20" as="geometry" />
        </mxCell>
      </root>
    </mxGraphModel>
  </diagram>
</mxfile>
